# xmcd
#
# Track frame offsets:
#	150
#	21190
#	38288
#	62440
#	79716
#	102025
#	125002
#	143782
#	168947
#	184987
#	202837
#	221883
#	239027
#	257361
#	273592
#	291522
#	306634
#	322994
#	343570
#
# Disc length: 4778
#
# Revision: 1
# Processed by: cddbd v1.5.1PL0 Copyright (c) Steve Scherf et al.
# Submitted via: dBpowerAMP V4.0
# Normalized: r0:TRMNUM
#
DISCID=1912a813
DTITLE=Faith Hill - Free - Disc 1
DYEAR=2004
DGENRE=Pop-Folk
TTITLE0=Free
TTITLE1=Cry
TTITLE2=One
TTITLE3=If you´re gonna fly away
TTITLE4=If this is the end
TTITLE5=This is me
TTITLE6=I think I will
TTITLE7=Whats in it for me
TTITLE8=I got my baby
TTITLE9=Love is a sweet thing
TTITLE10=Let´s make love
TTITLE11=It will be me
TTITLE12=If I´m not in love
TTITLE13=Bringing out the Elvis
TTITLE14=Soon
TTITLE15=But I do love you
TTITLE16=If my heart had wings
TTITLE17=If I should fall behind
TTITLE18=Over the rainbow
EXTD=
EXTT0=
EXTT1=
EXTT2=
EXTT3=
EXTT4=
EXTT5=
EXTT6=
EXTT7=
EXTT8=
EXTT9=
EXTT10=
EXTT11=
EXTT12=
EXTT13=
EXTT14=
EXTT15=
EXTT16=
EXTT17=
EXTT18=
PLAYORDER=
